<svg xmlns="http://www.w3.org/2000/svg" width="1200" height="900" viewBox="0 0 1200 900">
  <defs>
    <linearGradient id="bg" x1="0" y1="0" x2="1" y2="1">
      <stop offset="0" stop-color="#eef6f4"/>
      <stop offset="1" stop-color="#f6faf9"/>
    </linearGradient>
    <linearGradient id="shine" x1="0" y1="0" x2="1" y2="1">
      <stop offset="0" stop-color="#ffffff" stop-opacity="0.9"/>
      <stop offset="1" stop-color="#ffffff" stop-opacity="0.0"/>
    </linearGradient>
    <filter id="shadow" x="-20%" y="-20%" width="140%" height="140%">
      <feDropShadow dx="0" dy="18" stdDeviation="18" flood-color="#0c1f1c" flood-opacity="0.18"/>
    </filter>
  </defs>
  <rect width="1200" height="900" fill="url(#bg)"/>
  <circle cx="210" cy="720" r="260" fill="#0d9488" opacity="0.08"/>
  <circle cx="980" cy="180" r="240" fill="#14b8a6" opacity="0.08"/>
  <g filter="url(#shadow)">
    <path d="M600 190c-160 0-290 120-290 300 0 190 130 320 290 320s290-130 290-320c0-180-130-300-290-300z" fill="#ffffff" stroke="#d5e5e0" stroke-width="6"/>
    <path d="M420 520c40 80 110 130 180 130s140-50 180-130" fill="none" stroke="#0f766e" stroke-width="18" stroke-linecap="round"/>
    <circle cx="500" cy="440" r="18" fill="#0c1f1c" opacity="0.5"/>
    <circle cx="700" cy="440" r="18" fill="#0c1f1c" opacity="0.5"/>
    <path d="M450 300c40-30 80-40 120-35" fill="none" stroke="#0c1f1c" opacity="0.16" stroke-width="16" stroke-linecap="round"/>
    <path d="M750 300c-40-30-80-40-120-35" fill="none" stroke="#0c1f1c" opacity="0.16" stroke-width="16" stroke-linecap="round"/>
    <path d="M520 240c-90 40-150 120-160 220 40-70 120-110 240-110s200 40 240 110c-10-100-70-180-160-220-60 30-140 30-160 0z" fill="#0d9488" opacity="0.12"/>
    <path d="M430 250c140 120 240 120 340 0" fill="none" stroke="url(#shine)" stroke-width="14" opacity="0.9"/>
  </g>
  <text x="260" y="170" font-family="system-ui,Segoe UI,Arial" font-size="38" font-weight="700" fill="#0c1f1c" opacity="0.22">
    Smile Care
  </text>
</svg>
