<svg xmlns="http://www.w3.org/2000/svg" width="1200" height="900" viewBox="0 0 1200 900">
  <defs>
    <linearGradient id="bg" x1="0" y1="0" x2="1" y2="1">
      <stop offset="0" stop-color="#f6faf9"/>
      <stop offset="1" stop-color="#eef6f4"/>
    </linearGradient>
    <filter id="shadow" x="-20%" y="-20%" width="140%" height="140%">
      <feDropShadow dx="0" dy="18" stdDeviation="18" flood-color="#0c1f1c" flood-opacity="0.18"/>
    </filter>
  </defs>
  <rect width="1200" height="900" fill="url(#bg)"/>
  <circle cx="920" cy="700" r="260" fill="#0d9488" opacity="0.08"/>
  <circle cx="260" cy="190" r="200" fill="#14b8a6" opacity="0.08"/>
  <g filter="url(#shadow)">
    <rect x="260" y="220" width="680" height="480" rx="38" fill="#ffffff" stroke="#d5e5e0" stroke-width="6"/>
    <path d="M600 320c-120 0-210 85-210 195 0 120 90 205 210 205s210-85 210-205c0-110-90-195-210-195z" fill="#eef6f4"/>
    <path d="M520 520c28 48 68 78 80 78s52-30 80-78" fill="none" stroke="#0f766e" stroke-width="16" stroke-linecap="round"/>
    <circle cx="540" cy="455" r="14" fill="#0c1f1c" opacity="0.45"/>
    <circle cx="660" cy="455" r="14" fill="#0c1f1c" opacity="0.45"/>
    <path d="M460 380c40-38 88-58 140-58s100 20 140 58" fill="none" stroke="#0d9488" opacity="0.22" stroke-width="18" stroke-linecap="round"/>
    <path d="M360 620c70-60 155-90 240-90s170 30 240 90" fill="#0d9488" opacity="0.12"/>
    <circle cx="380" cy="350" r="22" fill="#14b8a6" opacity="0.35"/>
    <circle cx="860" cy="310" r="18" fill="#0d9488" opacity="0.25"/>
    <circle cx="830" cy="660" r="28" fill="#14b8a6" opacity="0.22"/>
  </g>
  <text x="290" y="180" font-family="system-ui,Segoe UI,Arial" font-size="38" font-weight="700" fill="#0c1f1c" opacity="0.22">
    Pediatric Dentistry
  </text>
</svg>
