<svg xmlns="http://www.w3.org/2000/svg" width="1200" height="900" viewBox="0 0 1200 900">
  <defs>
    <linearGradient id="bg" x1="0" y1="0" x2="1" y2="1">
      <stop offset="0" stop-color="#eef6f4"/>
      <stop offset="1" stop-color="#ffffff"/>
    </linearGradient>
    <linearGradient id="metal" x1="0" y1="0" x2="1" y2="1">
      <stop offset="0" stop-color="#cbd5e1"/>
      <stop offset="1" stop-color="#64748b"/>
    </linearGradient>
    <filter id="shadow" x="-20%" y="-20%" width="140%" height="140%">
      <feDropShadow dx="0" dy="18" stdDeviation="18" flood-color="#0c1f1c" flood-opacity="0.18"/>
    </filter>
  </defs>
  <rect width="1200" height="900" fill="url(#bg)"/>
  <circle cx="220" cy="210" r="190" fill="#14b8a6" opacity="0.08"/>
  <circle cx="960" cy="740" r="260" fill="#0d9488" opacity="0.08"/>
  <g filter="url(#shadow)">
    <path d="M600 210c-180 0-320 120-320 290 0 220 170 360 320 360s320-140 320-360c0-170-140-290-320-290z" fill="#ffffff" stroke="#d5e5e0" stroke-width="6"/>
    <path d="M420 500c40 95 120 150 180 150s140-55 180-150" fill="none" stroke="#0f766e" stroke-width="18" stroke-linecap="round"/>
    <g fill="url(#metal)" stroke="#94a3b8" stroke-width="6">
      <rect x="430" y="470" width="70" height="48" rx="14"/>
      <rect x="515" y="456" width="70" height="48" rx="14"/>
      <rect x="600" y="450" width="70" height="48" rx="14"/>
      <rect x="685" y="456" width="70" height="48" rx="14"/>
      <rect x="770" y="470" width="70" height="48" rx="14"/>
    </g>
    <path d="M430 494h410" stroke="#0c1f1c" opacity="0.25" stroke-width="10" stroke-linecap="round"/>
    <circle cx="500" cy="420" r="16" fill="#0c1f1c" opacity="0.45"/>
    <circle cx="700" cy="420" r="16" fill="#0c1f1c" opacity="0.45"/>
  </g>
  <text x="260" y="170" font-family="system-ui,Segoe UI,Arial" font-size="38" font-weight="700" fill="#0c1f1c" opacity="0.22">
    Braces / Aligners
  </text>
</svg>
