<svg xmlns="http://www.w3.org/2000/svg" width="1200" height="900" viewBox="0 0 1200 900">
  <defs>
    <linearGradient id="bg" x1="0" y1="0" x2="1" y2="1">
      <stop offset="0" stop-color="#f6faf9"/>
      <stop offset="1" stop-color="#eef6f4"/>
    </linearGradient>
    <filter id="shadow" x="-20%" y="-20%" width="140%" height="140%">
      <feDropShadow dx="0" dy="18" stdDeviation="18" flood-color="#0c1f1c" flood-opacity="0.18"/>
    </filter>
  </defs>
  <rect width="1200" height="900" fill="url(#bg)"/>
  <circle cx="180" cy="170" r="160" fill="#0d9488" opacity="0.10"/>
  <circle cx="1040" cy="760" r="240" fill="#14b8a6" opacity="0.10"/>
  <g filter="url(#shadow)">
    <rect x="210" y="240" width="780" height="420" rx="34" fill="#ffffff" stroke="#d5e5e0" stroke-width="6"/>
    <rect x="260" y="300" width="680" height="90" rx="22" fill="#eef6f4"/>
    <g fill="#0f766e" opacity="0.95">
      <rect x="310" y="420" width="44" height="220" rx="22"/>
      <rect x="440" y="420" width="44" height="220" rx="22"/>
      <rect x="570" y="420" width="44" height="220" rx="22"/>
      <rect x="700" y="420" width="44" height="220" rx="22"/>
      <rect x="830" y="420" width="44" height="220" rx="22"/>
    </g>
    <g fill="#0c1f1c" opacity="0.18">
      <rect x="300" y="410" width="64" height="14" rx="7"/>
      <rect x="430" y="410" width="64" height="14" rx="7"/>
      <rect x="560" y="410" width="64" height="14" rx="7"/>
      <rect x="690" y="410" width="64" height="14" rx="7"/>
      <rect x="820" y="410" width="64" height="14" rx="7"/>
    </g>
  </g>
  <text x="240" y="180" font-family="system-ui,Segoe UI,Arial" font-size="38" font-weight="700" fill="#0c1f1c" opacity="0.22">
    Sterile Instruments
  </text>
</svg>
